Coordinates
version=1
nRows=14
nColumns=24
inDegrees=yes

Units are S.I. units (second, meters, Newtons, ...)
Angles are in degrees.

endheader
time	pelvis_tilt	pelvis_list	pelvis_rotation	pelvis_tx	pelvis_ty	pelvis_tz	hip_flexion_r	hip_adduction_r	hip_rotation_r	knee_angle_r	ankle_angle_r	subtalar_angle_r	mtp_angle_r	hip_flexion_l	hip_adduction_l	hip_rotation_l	knee_angle_l	ankle_angle_l	subtalar_angle_l	mtp_angle_l	lumbar_extension	lumbar_bending	lumbar_rotation
     24.83000000	    -10.04889037	      1.41535617	     -6.88816116	     -1.20405789	     -0.02597768	     -0.27503211	     -4.68547678	      2.47147757	      8.68054196	    -14.79342506	      9.28333611	      7.58315938	     19.85391189	     33.83982640	     -0.37299399	     -1.21117499	    -10.66054140	     -1.64482497	     -0.29431751	      7.82054249	      6.94729718	     -0.30175753	     13.51592443
     24.83500000	    -10.09985753	      1.52759690	     -6.91366170	     -1.19746485	     -0.02687241	     -0.27546668	     -4.68986653	      2.24534115	      8.45719577	    -15.44730013	      9.12433118	      8.21277931	     20.34513822	     33.83755034	     -0.22047491	     -1.31281806	    -11.33592682	     -1.94722289	     -0.35997808	      8.04953177	      7.16530867	     -0.43221842	     13.54839196
     24.84000000	    -10.15841499	      1.66795761	     -6.91002129	     -1.19086353	     -0.02772137	     -0.27594010	     -4.66006549	      1.98408586	      8.17067037	    -16.13609525	      8.92869904	      8.89008826	     20.87092091	     33.84903181	     -0.02921529	     -1.41007860	    -11.98174261	     -2.33435233	     -0.42614033	      8.30968866	      7.39465417	     -0.60083653	     13.55657836
     24.84500000	    -10.20135364	      1.77943172	     -6.86377097	     -1.18437106	     -0.02849111	     -0.27652599	     -4.61710074	      1.73501765	      7.75631636	    -16.84116616	      8.60318163	      9.65840487	     21.74834952	     33.86139422	      0.16491995	     -1.40305380	    -12.59511114	     -2.90247100	     -0.60697382	      8.85486996	      7.57739577	     -0.74235817	     13.49954494
     24.85000000	    -10.28304441	      2.02247676	     -6.83765538	     -1.17779066	     -0.02918298	     -0.27702247	     -4.48569572	      1.35188234	      7.38948827	    -17.62435716	      8.31657711	     10.43646240	     22.35474694	     33.90851630	      0.45836285	     -1.53400871	    -13.15913088	     -3.44157356	     -0.66531936	      9.14381821	      7.84108078	     -1.02869757	     13.49780664
     24.85500000	    -10.36734464	      2.29608254	     -6.74476398	     -1.17120327	     -0.02978669	     -0.27760566	     -4.32764600	      0.92350591	      6.89097801	    -18.43709702	      7.97567503	     11.31548046	     22.97711759	     33.97258731	      0.82345356	     -1.56009264	    -13.70646636	     -4.02058267	     -0.72997657	      9.40758011	      8.11013113	     -1.36252237	     13.41268462
     24.86000000	    -10.45301382	      2.60435178	     -6.61434306	     -1.16463735	     -0.03029048	     -0.27824313	     -4.13696274	      0.44454621	      6.31109706	    -19.28472468	      7.56510722	     12.27207741	     23.63881917	     34.05853564	      1.24966052	     -1.53793607	    -14.25874399	     -4.64224947	     -0.81801296	      9.63704907	      8.37848719	     -1.74152197	     13.31219574
     24.86500000	    -10.52151853	      2.89209556	     -6.44484426	     -1.15818237	     -0.03068002	     -0.27900872	     -3.92841676	     -0.04131837	      5.58133554	    -20.16151071	      7.02616181	     13.34503066	     24.49963358	     34.16053532	      1.69977730	     -1.40316329	    -14.85091425	     -5.34523511	     -1.03390492	      9.87172250	      8.59762828	     -2.09352960	     13.22528668
     24.87000000	    -10.59908701	      3.25590102	     -6.27412005	     -1.15162673	     -0.03099213	     -0.27968562	     -3.67567902	     -0.61200557	      4.85289994	    -21.09298744	      6.40189899	     14.40521556	     25.31548055	     34.25602646	      2.22243157	     -1.22422452	    -15.42902670	     -5.96504303	     -1.18091054	     10.00436668	      8.85748103	     -2.54575567	     13.07955123
     24.87500000	    -10.66107502	      3.60786659	     -6.05196330	     -1.14514909	     -0.03122215	     -0.28043918	     -3.41550094	     -1.18832322	      4.03985780	    -22.04866808	      5.66318322	     15.50844694	     26.25992917	     34.36509144	      2.78297795	     -0.91186152	    -16.06850333	     -6.61067623	     -1.42603805	     10.01132366	      9.07377163	     -2.99596442	     12.95661997
     24.88000000	    -10.71293580	      3.97133017	     -5.84838746	     -1.13862980	     -0.03138464	     -0.28116053	     -3.12036314	     -1.79805779	      3.18079740	    -23.06826661	      4.78266187	     16.62738621	     27.26028392	     34.44331164	      3.36019273	     -0.52694682	    -16.70435584	     -7.13672977	     -1.71298184	      9.87984964	      9.28782806	     -3.46026973	     12.78759706
     24.88500000	    -10.75919789	      4.32732528	     -5.62348495	     -1.13202997	     -0.03147985	     -0.28189262	     -2.82261887	     -2.41888177	      2.30296375	    -24.10435802	      3.78303801	     17.81186176	     28.20306611	     34.50912256	      3.95296132	     -0.10139057	    -17.36231351	     -7.56396865	     -1.98915048	      9.62211372	      9.50667911	     -3.92186551	     12.61630519
     24.89000000	    -10.78007731	      4.69265119	     -5.35240000	     -1.12538715	     -0.03147490	     -0.28266447	     -2.55145917	     -3.05621592	      1.41840280	    -25.09892146	      2.42280276	     18.75927465	     29.68883635	     34.52238550	      4.61334078	      0.47807940	    -18.00712963	     -7.94694469	     -2.46643644	      8.93963663	      9.69484761	     -4.41359072	     12.39928409
     24.89500000	    -10.79521989	      5.00047923	     -5.13791502	     -1.11878285	     -0.03149748	     -0.28326096	     -2.21109674	     -3.65577353	      0.51618793	    -26.27929636	      1.29034264	     20.03366782	     30.17513401	     34.54895171	      5.13859173	      0.76677070	    -18.69874001	     -8.07973932	     -2.46921601	      8.78859265	      9.86914407	     -4.84601298	     12.25771005
